# xmcd
#
# Track frame offsets:
# 150
# 19586
# 38273
# 60673
# 83913
# 100953
# 121188
# 145992
# 166605
# 188125
# 207902
# 228280
# 244969
# 264626
# 281068
# 307776
#
# Disc length: 4326 seconds
#
# Revision: 0
# Processed by: cddbd v1.4PL0 Copyright (c) Steve Scherf et al.
# Submitted via: Audion 2.5.0 (http://www.panic.com/audion/)
#
DISCID=cd10e410
DTITLE=; - - ll
DYEAR=1900
DGENRE=
TTITLE0=kk
TTITLE1=kk
TTITLE2=kk
TTITLE3=kk
TTITLE4=kk
TTITLE5=kk
TTITLE6=kk
TTITLE7=k
TTITLE8=k
TTITLE9=k
TTITLE10=k
TTITLE11=k
TTITLE12=k
TTITLE13=k
TTITLE14=k
TTITLE15=k
EXTD=
EXTT0=
EXTT1=
EXTT2=
EXTT3=
EXTT4=
EXTT5=
EXTT6=
EXTT7=
EXTT8=
EXTT9=
EXTT10=
EXTT11=
EXTT12=
EXTT13=
EXTT14=
EXTT15=
PLAYORDER=
